<?xml version="1.0" encoding="utf-8"?>
<!-- Generator: Adobe Illustrator 23.0.1, SVG Export Plug-In . SVG Version: 6.00 Build 0)  -->
<svg version="1.1" id="Layer_1" xmlns="http://www.w3.org/2000/svg" xmlns:xlink="http://www.w3.org/1999/xlink" x="0px" y="0px"
	 viewBox="0 0 80 70" style="enable-background:new 0 0 80 70;" xml:space="preserve">
<style type="text/css">
	.st0{fill-rule:evenodd;clip-rule:evenodd;fill:#FFFFFF;}
</style>
<g>
	<path class="st0" d="M61.2,22.8c-1-11.8-30.6-13-51.6-1.7c-1.5,0.8-0.6,3.1,1.8,1.6c8-4.5,37-6.6,37.2,1.4c0,3.5-7.3,9-14.8,11.6
		c-0.3,1.1-0.6,2.1-0.9,3.1C44.4,36,61.6,28.8,61.2,22.8L61.2,22.8z"/>
	<path class="st0" d="M26.6,32c4.2,0.3,7.5-2.1,10.2-5.8c-1.1,3.1-2.1,6.3-3.1,9.5c-2.4,0.8-4.9,1.4-7.2,1.4
		C26.6,35.4,26.6,33.7,26.6,32L26.6,32z M32.8,38.8c-1.9,6.6-3.4,13.3-4.7,19.9c-0.7-6.2-1.3-12.5-1.5-18.8
		C28.4,39.8,30.5,39.4,32.8,38.8L32.8,38.8z"/>
	<path class="st0" d="M66.4,22.9c0-4.6-6-9.4-13.1-10.7c25.3,11.3-1.1,25-18,29c-0.5,5.1-1.8,10.5-3.4,15.9
		c1.7-4.2,3.5-8.2,4.5-13.9C49.1,40.1,66.1,31.3,66.4,22.9L66.4,22.9z"/>
	<path class="st0" d="M69.4,26.8c5.7-8.8-3.8-13-11.6-15.6c8.6,4.5,13,9.9,8.1,16.9c-5.3,6.2-18.3,14.1-28.7,16.6
		c-0.5,4.6-1.7,8.9-3.2,13.2c2.2-3.5,3.9-7.2,4.2-11.3C52.3,42.1,63.8,34.7,69.4,26.8L69.4,26.8z"/>
</g>
</svg>
